<mxfile host="65bd71144e">
    <diagram id="mb9JU63Rsi-a-AbYaUDw" name="Page-1">
        <mxGraphModel dx="1029" dy="524" grid="1" gridSize="10" guides="1" tooltips="1" connect="1" arrows="1" fold="1" page="1" pageScale="1" pageWidth="850" pageHeight="1100" math="0" shadow="0">
            <root>
                <mxCell id="0"/>
                <mxCell id="1" parent="0"/>
                <mxCell id="9" value="User" style="rounded=0;whiteSpace=wrap;html=1;fillColor=#a20025;fontColor=#ffffff;strokeColor=#6F0000;" vertex="1" parent="1">
                    <mxGeometry x="340" y="170" width="80" height="30" as="geometry"/>
                </mxCell>
                <mxCell id="13" value="" style="curved=1;endArrow=classic;html=1;exitX=0;exitY=1;exitDx=0;exitDy=0;" edge="1" parent="1" source="9" target="17">
                    <mxGeometry width="50" height="50" relative="1" as="geometry">
                        <mxPoint x="240" y="230" as="sourcePoint"/>
                        <mxPoint x="145.45454545454538" y="170" as="targetPoint"/>
                        <Array as="points">
                            <mxPoint x="290" y="230"/>
                            <mxPoint x="160" y="210"/>
                        </Array>
                    </mxGeometry>
                </mxCell>
                <mxCell id="15" value="Runs script" style="text;html=1;strokeColor=none;fillColor=none;align=center;verticalAlign=middle;whiteSpace=wrap;rounded=0;" vertex="1" parent="1">
                    <mxGeometry x="210" y="190" width="90" height="30" as="geometry"/>
                </mxCell>
                <mxCell id="17" value="python( takes password)" style="rounded=0;whiteSpace=wrap;html=1;" vertex="1" parent="1">
                    <mxGeometry x="50.00454545454538" y="110" width="120" height="60" as="geometry"/>
                </mxCell>
                <mxCell id="20" value="" style="curved=1;endArrow=classic;html=1;" edge="1" parent="1" target="24">
                    <mxGeometry width="50" height="50" relative="1" as="geometry">
                        <mxPoint x="160" y="110" as="sourcePoint"/>
                        <mxPoint x="330" y="50" as="targetPoint"/>
                        <Array as="points">
                            <mxPoint x="210" y="110"/>
                            <mxPoint x="230" y="80"/>
                            <mxPoint x="230" y="30"/>
                        </Array>
                    </mxGeometry>
                </mxCell>
                <mxCell id="23" value="pasword" style="text;html=1;strokeColor=none;fillColor=none;align=center;verticalAlign=middle;whiteSpace=wrap;rounded=0;" vertex="1" parent="1">
                    <mxGeometry x="170" y="50" width="60" height="30" as="geometry"/>
                </mxCell>
                <mxCell id="24" value="UI login screen" style="rounded=0;whiteSpace=wrap;html=1;" vertex="1" parent="1">
                    <mxGeometry x="270" y="20" width="120" height="60" as="geometry"/>
                </mxCell>
                <mxCell id="26" value="" style="curved=1;endArrow=classic;html=1;entryX=0.5;entryY=1;entryDx=0;entryDy=0;exitX=0.681;exitY=-0.067;exitDx=0;exitDy=0;exitPerimeter=0;" edge="1" parent="1" source="9" target="24">
                    <mxGeometry width="50" height="50" relative="1" as="geometry">
                        <mxPoint x="340" y="170" as="sourcePoint"/>
                        <mxPoint x="420" y="110" as="targetPoint"/>
                        <Array as="points">
                            <mxPoint x="390" y="170"/>
                            <mxPoint x="110" y="140"/>
                            <mxPoint x="340" y="120"/>
                        </Array>
                    </mxGeometry>
                </mxCell>
                <mxCell id="27" value="python script opens browser" style="text;html=1;strokeColor=none;fillColor=none;align=center;verticalAlign=middle;whiteSpace=wrap;rounded=0;" vertex="1" parent="1">
                    <mxGeometry x="230" y="140" width="140" height="30" as="geometry"/>
                </mxCell>
                <mxCell id="28" value="" style="endArrow=classic;html=1;" edge="1" parent="1" target="29">
                    <mxGeometry width="50" height="50" relative="1" as="geometry">
                        <mxPoint x="390" y="60" as="sourcePoint"/>
                        <mxPoint x="510" y="80" as="targetPoint"/>
                    </mxGeometry>
                </mxCell>
                <mxCell id="29" value="UI main" style="rounded=0;whiteSpace=wrap;html=1;" vertex="1" parent="1">
                    <mxGeometry x="450" y="50" width="120" height="60" as="geometry"/>
                </mxCell>
                <mxCell id="31" value="" style="curved=1;endArrow=classic;html=1;exitX=0.892;exitY=1.064;exitDx=0;exitDy=0;exitPerimeter=0;entryX=0.211;entryY=1.05;entryDx=0;entryDy=0;entryPerimeter=0;" edge="1" parent="1" source="29" target="17">
                    <mxGeometry width="50" height="50" relative="1" as="geometry">
                        <mxPoint x="400" y="170" as="sourcePoint"/>
                        <mxPoint x="480" y="130" as="targetPoint"/>
                        <Array as="points">
                            <mxPoint x="650" y="190"/>
                            <mxPoint x="620" y="310"/>
                            <mxPoint x="380" y="320"/>
                            <mxPoint x="190" y="310"/>
                            <mxPoint x="50" y="260"/>
                        </Array>
                    </mxGeometry>
                </mxCell>
                <mxCell id="32" value="user inputted command" style="text;html=1;strokeColor=none;fillColor=none;align=center;verticalAlign=middle;whiteSpace=wrap;rounded=0;" vertex="1" parent="1">
                    <mxGeometry x="295" y="290" width="170" height="30" as="geometry"/>
                </mxCell>
                <mxCell id="33" value="" style="curved=1;endArrow=classic;html=1;exitX=0.419;exitY=1.036;exitDx=0;exitDy=0;exitPerimeter=0;entryX=0.656;entryY=1.008;entryDx=0;entryDy=0;entryPerimeter=0;" edge="1" parent="1" source="17" target="29">
                    <mxGeometry width="50" height="50" relative="1" as="geometry">
                        <mxPoint x="400" y="150" as="sourcePoint"/>
                        <mxPoint x="440" y="100" as="targetPoint"/>
                        <Array as="points">
                            <mxPoint x="150" y="220"/>
                            <mxPoint x="230" y="270"/>
                            <mxPoint x="280" y="280"/>
                            <mxPoint x="340" y="280"/>
                            <mxPoint x="460" y="270"/>
                            <mxPoint x="550" y="290"/>
                            <mxPoint x="570" y="210"/>
                            <mxPoint x="590" y="180"/>
                            <mxPoint x="550" y="150"/>
                            <mxPoint x="550" y="130"/>
                        </Array>
                    </mxGeometry>
                </mxCell>
                <mxCell id="34" value="answer ( also contains info about if it is a question" style="text;html=1;strokeColor=none;fillColor=none;align=center;verticalAlign=middle;whiteSpace=wrap;rounded=0;" vertex="1" parent="1">
                    <mxGeometry x="270" y="240" width="185" height="30" as="geometry"/>
                </mxCell>
                <mxCell id="35" value="is it a question?" style="ellipse;whiteSpace=wrap;html=1;" vertex="1" parent="1">
                    <mxGeometry x="670" y="15" width="100" height="70" as="geometry"/>
                </mxCell>
                <mxCell id="38" value="" style="endArrow=classic;html=1;" edge="1" parent="1">
                    <mxGeometry width="50" height="50" relative="1" as="geometry">
                        <mxPoint x="350" y="180" as="sourcePoint"/>
                        <mxPoint x="400" y="130" as="targetPoint"/>
                    </mxGeometry>
                </mxCell>
                <mxCell id="39" value="" style="endArrow=classic;html=1;exitX=1;exitY=0.5;exitDx=0;exitDy=0;entryX=0;entryY=0.5;entryDx=0;entryDy=0;" edge="1" parent="1" source="29" target="35">
                    <mxGeometry width="50" height="50" relative="1" as="geometry">
                        <mxPoint x="570" y="90" as="sourcePoint"/>
                        <mxPoint x="620" y="40" as="targetPoint"/>
                    </mxGeometry>
                </mxCell>
                <mxCell id="40" value="" style="curved=1;endArrow=classic;html=1;exitX=0.05;exitY=0.8;exitDx=0;exitDy=0;exitPerimeter=0;entryX=1;entryY=1;entryDx=0;entryDy=0;" edge="1" parent="1" source="35" target="29">
                    <mxGeometry width="50" height="50" relative="1" as="geometry">
                        <mxPoint x="670" y="155" as="sourcePoint"/>
                        <mxPoint x="730" y="105" as="targetPoint"/>
                        <Array as="points">
                            <mxPoint x="700" y="130"/>
                            <mxPoint x="650" y="150"/>
                        </Array>
                    </mxGeometry>
                </mxCell>
                <mxCell id="41" value="NO" style="text;html=1;strokeColor=none;fillColor=none;align=center;verticalAlign=middle;whiteSpace=wrap;rounded=0;" vertex="1" parent="1">
                    <mxGeometry x="620" y="110" width="60" height="30" as="geometry"/>
                </mxCell>
                <mxCell id="42" value="Answer" style="text;html=1;strokeColor=none;fillColor=none;align=center;verticalAlign=middle;whiteSpace=wrap;rounded=0;" vertex="1" parent="1">
                    <mxGeometry x="580" y="35" width="60" height="30" as="geometry"/>
                </mxCell>
                <mxCell id="44" value="" style="curved=1;endArrow=classic;html=1;exitX=0.39;exitY=0.986;exitDx=0;exitDy=0;exitPerimeter=0;entryX=0;entryY=1;entryDx=0;entryDy=0;" edge="1" parent="1" source="35" target="17">
                    <mxGeometry width="50" height="50" relative="1" as="geometry">
                        <mxPoint x="760" y="165" as="sourcePoint"/>
                        <mxPoint x="60" y="280" as="targetPoint"/>
                        <Array as="points">
                            <mxPoint x="720" y="120"/>
                            <mxPoint x="790" y="390"/>
                            <mxPoint x="30" y="380"/>
                        </Array>
                    </mxGeometry>
                </mxCell>
                <mxCell id="45" value="Answer to question" style="text;html=1;strokeColor=none;fillColor=none;align=center;verticalAlign=middle;whiteSpace=wrap;rounded=0;" vertex="1" parent="1">
                    <mxGeometry x="410" y="350" width="120" height="30" as="geometry"/>
                </mxCell>
            </root>
        </mxGraphModel>
    </diagram>
</mxfile>